<svg width="53" height="47" viewBox="0 0 53 47" fill="none" xmlns="http://www.w3.org/2000/svg">
<path d="M48.168 4.97902C45.3582 2.16292 41.6336 0.444125 37.667 0.133127C33.7003 -0.177872 29.7532 0.939427 26.5385 3.2832C23.166 0.775599 18.9682 -0.361468 14.7905 0.100978C10.6129 0.563425 6.76567 2.59103 4.02364 5.77549C1.2816 8.95995 -0.151575 13.0647 0.0127111 17.2632C0.176997 21.4617 1.92654 25.442 4.90903 28.4026L21.3697 44.8839C22.7481 46.24 24.6046 47 26.5385 47C28.4725 47 30.3289 46.24 31.7073 44.8839L48.168 28.4026C51.2629 25.2899 53 21.0795 53 16.6908C53 12.3021 51.2629 8.09175 48.168 4.97902ZM44.4306 24.746L27.9699 41.2008C27.7826 41.3898 27.5596 41.5399 27.314 41.6424C27.0683 41.7448 26.8047 41.7975 26.5385 41.7975C26.2723 41.7975 26.0088 41.7448 25.7631 41.6424C25.5174 41.5399 25.2945 41.3898 25.1072 41.2008L8.64648 24.6665C6.56771 22.5423 5.40368 19.6889 5.40368 16.7173C5.40368 13.7457 6.56771 10.8923 8.64648 8.76813C10.7648 6.67747 13.6217 5.50518 16.5985 5.50518C19.5753 5.50518 22.4322 6.67747 24.5505 8.76813C24.7969 9.01649 25.0901 9.21361 25.4131 9.34813C25.7361 9.48266 26.0826 9.55192 26.4325 9.55192C26.7824 9.55192 27.1289 9.48266 27.4519 9.34813C27.7749 9.21361 28.0681 9.01649 28.3145 8.76813C30.4328 6.67747 33.2897 5.50518 36.2665 5.50518C39.2433 5.50518 42.1002 6.67747 44.2185 8.76813C46.3259 10.8645 47.5281 13.7024 47.5678 16.6741C47.6074 19.6457 46.4813 22.5147 44.4306 24.6665V24.746Z" fill="#005007"/>
</svg>
