<svg width="77" height="76" viewBox="0 0 77 76" fill="none" xmlns="http://www.w3.org/2000/svg">
<path d="M64.1574 27.4835C69.7883 41.563 62.7521 57.6632 48.3713 63.4146C33.9905 69.166 17.7925 62.3579 12.1616 48.2784C6.53067 34.1989 13.5669 18.0986 27.9477 12.3473C42.3285 6.59587 58.5265 13.4039 64.1574 27.4835Z" fill="#BFDA94" stroke="#005007" stroke-width="3"/>
<path d="M26 38.5L24.5919 37.0797L23.1592 38.5L24.5919 39.9203L26 38.5ZM55 40.5C56.1046 40.5 57 39.6046 57 38.5C57 37.3954 56.1046 36.5 55 36.5V40.5ZM36.1919 25.5797L24.5919 37.0797L27.4081 39.9203L39.0081 28.4203L36.1919 25.5797ZM24.5919 39.9203L36.1919 51.4203L39.0081 48.5797L27.4081 37.0797L24.5919 39.9203ZM26 40.5H55V36.5H26V40.5Z" fill="#005007"/>
</svg>
