<svg width="77" height="76" viewBox="0 0 77 76" fill="none" xmlns="http://www.w3.org/2000/svg">
<path d="M12.1615 48.2784C6.53066 34.1989 13.5669 18.0986 27.9477 12.3472C42.3285 6.59583 58.5265 13.4039 64.1574 27.4834C69.7883 41.5629 62.7521 57.6632 48.3713 63.4146C33.9905 69.166 17.7924 62.3579 12.1615 48.2784Z" fill="#BFDA94" stroke="#005007" stroke-width="3"/>
<path d="M50.319 37.2618L51.727 38.6822L53.1597 37.2618L51.727 35.8415L50.319 37.2618ZM21.319 35.2618C20.2144 35.2618 19.319 36.1573 19.319 37.2618C19.319 38.3664 20.2144 39.2618 21.319 39.2618L21.319 35.2618ZM40.127 50.1822L51.727 38.6822L48.9109 35.8415L37.3109 47.3415L40.127 50.1822ZM51.727 35.8415L40.1271 24.3415L37.3109 27.1822L48.9109 38.6822L51.727 35.8415ZM50.319 35.2618L21.319 35.2618L21.319 39.2618L50.319 39.2618L50.319 35.2618Z" fill="#005007"/>
</svg>
