<svg width="176" height="28" viewBox="0 0 176 28" fill="none" xmlns="http://www.w3.org/2000/svg">
<path d="M14 0L17.1432 9.67376H27.3148L19.0858 15.6525L22.229 25.3262L14 19.3475L5.77101 25.3262L8.9142 15.6525L0.685208 9.67376H10.8568L14 0Z" fill="#FFC875"/>
<path d="M51 0L54.1432 9.67376H64.3148L56.0858 15.6525L59.229 25.3262L51 19.3475L42.771 25.3262L45.9142 15.6525L37.6852 9.67376H47.8568L51 0Z" fill="#FFC875"/>
<path d="M88 0L91.1432 9.67376H101.315L93.0858 15.6525L96.229 25.3262L88 19.3475L79.771 25.3262L82.9142 15.6525L74.6852 9.67376H84.8568L88 0Z" fill="#FFC875"/>
<path d="M125 0L128.143 9.67376H138.315L130.086 15.6525L133.229 25.3262L125 19.3475L116.771 25.3262L119.914 15.6525L111.685 9.67376H121.857L125 0Z" fill="#FFC875"/>
<path d="M162 0L165.143 9.67376H175.315L167.086 15.6525L170.229 25.3262L162 19.3475L153.771 25.3262L156.914 15.6525L148.685 9.67376H158.857L162 0Z" fill="#FFC875"/>
</svg>
